<svg width="40" height="40" viewBox="0 0 40 40" fill="none" xmlns="http://www.w3.org/2000/svg">
<path d="M0 20C0 8.95431 8.95431 0 20 0C31.0457 0 40 8.95431 40 20C40 31.0457 31.0457 40 20 40C8.95431 40 0 31.0457 0 20Z" fill="#26285F"/>
<g clip-path="url(#clip0_12021_184163)">
<path d="M18.2807 22.9167C18.2063 22.6283 18.056 22.3651 17.8454 22.1545C17.6348 21.9439 17.3716 21.7936 17.0832 21.7192L11.9707 20.4009C11.8835 20.3761 11.8068 20.3236 11.7521 20.2512C11.6974 20.1789 11.6678 20.0907 11.6678 20C11.6678 19.9094 11.6974 19.8212 11.7521 19.7488C11.8068 19.6765 11.8835 19.624 11.9707 19.5992L17.0832 18.28C17.3715 18.2057 17.6347 18.0555 17.8452 17.8451C18.0558 17.6346 18.2062 17.3716 18.2807 17.0834L19.5991 11.9709C19.6236 11.8833 19.6761 11.8062 19.7485 11.7512C19.821 11.6963 19.9094 11.6665 20.0003 11.6665C20.0913 11.6665 20.1797 11.6963 20.2521 11.7512C20.3246 11.8062 20.3771 11.8833 20.4016 11.9709L21.7191 17.0834C21.7935 17.3718 21.9438 17.635 22.1544 17.8456C22.365 18.0562 22.6282 18.2065 22.9166 18.2809L28.0291 19.5984C28.117 19.6226 28.1945 19.6751 28.2498 19.7476C28.305 19.8202 28.335 19.9088 28.335 20C28.335 20.0912 28.305 20.1799 28.2498 20.2525C28.1945 20.325 28.117 20.3775 28.0291 20.4017L22.9166 21.7192C22.6282 21.7936 22.365 21.9439 22.1544 22.1545C21.9438 22.3651 21.7935 22.6283 21.7191 22.9167L20.4007 28.0292C20.3762 28.1168 20.3238 28.1939 20.2513 28.2489C20.1789 28.3038 20.0904 28.3336 19.9995 28.3336C19.9086 28.3336 19.8201 28.3038 19.7477 28.2489C19.6752 28.1939 19.6227 28.1168 19.5982 28.0292L18.2807 22.9167Z" stroke="white" stroke-width="1.66667" stroke-linecap="round" stroke-linejoin="round"/>
<path d="M26.6666 12.5V15.8333" stroke="white" stroke-width="1.66667" stroke-linecap="round" stroke-linejoin="round"/>
<path d="M28.3333 14.1665H25" stroke="white" stroke-width="1.66667" stroke-linecap="round" stroke-linejoin="round"/>
<path d="M13.3334 24.1665V25.8332" stroke="white" stroke-width="1.66667" stroke-linecap="round" stroke-linejoin="round"/>
<path d="M14.1667 25H12.5" stroke="white" stroke-width="1.66667" stroke-linecap="round" stroke-linejoin="round"/>
</g>
<defs>
<clipPath id="clip0_12021_184163">
<rect width="20" height="20" fill="white" transform="translate(10 10)"/>
</clipPath>
</defs>
</svg>
